<svg xmlns="http://www.w3.org/2000/svg" xmlns:xlink="http://www.w3.org/1999/xlink" version="1.1" id="Ebene_1" x="0px" y="0px" width="100.0px" height="100px" viewBox="10.0 -20.0 200.0 270.0" enable-background="new 0 0 200 200" xml:space="preserve">
<g>
	<rect x="4" y="85" width="49" height="102"/>
	<path d="M176.094,79c-12.019,0-27.796,0-27.796,0c0-12,0.244-37.852-1.66-49.216c-2.677-15.99-8.493-16.168-15.518-16.168   c-12.021,0-12.954,16.946-18.962,40.985C106.777,76.132,81,92.68,64,95.919V175c12,0,18.191,0,30.21,0c12.019,0,6.009,12,18.028,12   c12.02,0,24.039,0,54.088,0C196.374,187,196,156.758,196,156.758s0-45.811,0-57.583C196,87.405,188.113,79,176.094,79z"/>
</g>
<text x="0.0" y="235.0" font-size="10.0" font-weight="bold" font-family="Helvetica Neue, Helvetica, Arial-Unicode, Arial, Sans-serif" fill="#000000">Created by Richard Schumann</text><text x="0.0" y="245.0" font-size="10.0" font-weight="bold" font-family="Helvetica Neue, Helvetica, Arial-Unicode, Arial, Sans-serif" fill="#000000">from the Noun Project</text></svg>